# xmcd
#
# Track frame offsets: 
#        150
#        20652
#        40187
#        66100
#        80955
#        102122
#        121645
#        137832
#        156262
#        178155
#
# Disc length: 2675 seconds
#
# Revision: 3
# Processed by: cddbd v1.5.2PL0 Copyright (c) Steve Scherf et al.
# Submitted via: ExactAudioCopy v0.99pb4
#
DISCID=850a710a
DTITLE=Little River Band - Backstage Pass (Live) - CD 2
DYEAR=1980
DGENRE=blues
TTITLE0=Little River Band - Hard Life
TTITLE1=Little River Band - The Rumor
TTITLE2=Little River Band - Mistress Of Mine
TTITLE3=Little River Band - Too Lonely Too Long
TTITLE4=Little River Band - Red Shoes
TTITLE5=Little River Band - I Don't Worry No More
TTITLE6=Little River Band - Let's Dance
TTITLE7=Little River Band - Man On The Run
TTITLE8=Little River Band - It's Not A Wonder
TTITLE9=Little River Band - Sweet Old Fashioned Man
EXTD=
EXTT0=
EXTT1=
EXTT2=
EXTT3=
EXTT4=
EXTT5=
EXTT6=
EXTT7=
EXTT8=
EXTT9=
PLAYORDER=
